<svg width="77" height="77" viewBox="0 0 77 77" fill="none" xmlns="http://www.w3.org/2000/svg">
<path d="M43.3125 12.8333C42.0362 12.8333 40.8121 13.3403 39.9096 14.2429C39.0071 15.1454 38.5 16.3695 38.5 17.6458C38.5 18.9222 39.0071 20.1462 39.9096 21.0488C40.8121 21.9513 42.0362 22.4583 43.3125 22.4583C44.5889 22.4583 45.813 21.9513 46.7155 21.0488C47.618 20.1462 48.125 18.9222 48.125 17.6458C48.125 16.3695 47.618 15.1454 46.7155 14.2429C45.813 13.3403 44.5889 12.8333 43.3125 12.8333ZM42.1575 28.1371C38.3396 28.4579 27.9125 36.7675 27.9125 36.7675C27.2709 37.2487 27.4634 37.2166 27.9767 38.115C28.49 38.9812 28.4259 39.0454 29.0354 38.6283C29.6771 38.2112 30.7359 37.5375 32.5004 36.4466C39.3021 32.0833 33.5913 42.1575 30.6717 59.1296C29.5167 67.5354 37.0884 63.2041 39.0454 61.9208C40.9704 60.6696 46.1359 57.1083 46.6492 56.7554C47.355 56.2741 46.8417 55.8891 46.2963 55.0871C45.9113 54.5416 45.5263 54.9266 45.5263 54.9266C43.4409 56.3062 39.6229 59.1937 39.1096 57.365C38.5 55.5362 42.4142 42.9916 44.5638 34.3612C44.9167 32.3079 45.8792 27.8162 42.1575 28.1371Z" fill="white"/>
</svg>
