<svg width="48" height="47" viewBox="0 0 48 47" fill="none" xmlns="http://www.w3.org/2000/svg">
<g filter="url(#filter0_d_270_78)">
<path d="M42.9269 11.9386C42.9054 10.3326 42.6043 8.74249 42.0369 7.23951C41.5448 5.97176 40.7933 4.82042 39.8303 3.85904C38.8674 2.89766 37.7141 2.1474 36.4442 1.65617C34.9581 1.09923 33.3881 0.798086 31.801 0.765555C29.7577 0.674372 29.1099 0.648926 23.9229 0.648926C18.736 0.648926 18.0712 0.648926 16.0427 0.765555C14.4563 0.798325 12.8871 1.09947 11.4016 1.65617C10.1316 2.14705 8.97811 2.8972 8.01509 3.85862C7.05207 4.82004 6.30067 5.97156 5.80898 7.23951C5.24999 8.72204 4.94899 10.2891 4.919 11.8729C4.82766 13.9149 4.80005 14.5617 4.80005 19.74C4.80005 24.9183 4.80005 25.5799 4.919 27.6071C4.95086 29.1933 5.25035 30.7582 5.80898 32.2447C6.3015 33.5123 7.05345 34.6634 8.0168 35.6244C8.98014 36.5854 10.1337 37.3352 11.4037 37.826C12.8851 38.4053 14.4547 38.728 16.0448 38.7802C18.0903 38.8714 18.7381 38.8989 23.9251 38.8989C29.112 38.8989 29.7768 38.8989 31.8053 38.7802C33.3923 38.749 34.9624 38.4485 36.4485 37.8917C37.718 37.3999 38.871 36.6494 39.8339 35.6881C40.7968 34.7268 41.5485 33.5758 42.0411 32.3083C42.5998 30.824 42.8992 29.259 42.9311 27.6708C43.0224 25.6308 43.05 24.9841 43.05 19.8036C43.0458 14.6253 43.0458 13.9679 42.9269 11.9386ZM23.9102 29.5326C18.4853 29.5326 14.0907 25.1452 14.0907 19.7294C14.0907 14.3136 18.4853 9.92622 23.9102 9.92622C26.5145 9.92622 29.0121 10.9591 30.8536 12.7975C32.6951 14.636 33.7297 17.1294 33.7297 19.7294C33.7297 22.3294 32.6951 24.8228 30.8536 26.6613C29.0121 28.4997 26.5145 29.5326 23.9102 29.5326ZM34.1205 11.8495C33.8197 11.8498 33.5219 11.7909 33.2439 11.6761C32.966 11.5613 32.7135 11.3929 32.5008 11.1806C32.2881 10.9683 32.1195 10.7162 32.0045 10.4387C31.8895 10.1613 31.8305 9.86388 31.8308 9.56361C31.8308 9.26355 31.89 8.96644 32.005 8.68923C32.12 8.41202 32.2886 8.16013 32.5011 7.94796C32.7136 7.7358 32.9659 7.56749 33.2436 7.45267C33.5213 7.33784 33.8189 7.27874 34.1195 7.27874C34.42 7.27874 34.7176 7.33784 34.9953 7.45267C35.273 7.56749 35.5253 7.7358 35.7378 7.94796C35.9503 8.16013 36.1189 8.41202 36.2339 8.68923C36.3489 8.96644 36.4081 9.26355 36.4081 9.56361C36.4081 10.8274 35.3843 11.8495 34.1205 11.8495Z" fill="#0587FF"/>
<path d="M23.9102 26.0973C27.433 26.0973 30.2887 23.2463 30.2887 19.7294C30.2887 16.2125 27.433 13.3615 23.9102 13.3615C20.3874 13.3615 17.5316 16.2125 17.5316 19.7294C17.5316 23.2463 20.3874 26.0973 23.9102 26.0973Z" fill="#0587FF"/>
</g>
<defs>
<filter id="filter0_d_270_78" x="0.800049" y="0.648926" width="46.25" height="46.25" filterUnits="userSpaceOnUse" color-interpolation-filters="sRGB">
<feFlood flood-opacity="0" result="BackgroundImageFix"/>
<feColorMatrix in="SourceAlpha" type="matrix" values="0 0 0 0 0 0 0 0 0 0 0 0 0 0 0 0 0 0 127 0" result="hardAlpha"/>
<feOffset dy="4"/>
<feGaussianBlur stdDeviation="2"/>
<feComposite in2="hardAlpha" operator="out"/>
<feColorMatrix type="matrix" values="0 0 0 0 0 0 0 0 0 0 0 0 0 0 0 0 0 0 0.25 0"/>
<feBlend mode="normal" in2="BackgroundImageFix" result="effect1_dropShadow_270_78"/>
<feBlend mode="normal" in="SourceGraphic" in2="effect1_dropShadow_270_78" result="shape"/>
</filter>
</defs>
</svg>
