<svg width="79" height="74" viewBox="0 0 79 74" fill="none" xmlns="http://www.w3.org/2000/svg">
<path d="M40.4245 6.34801C28.8362 6.31943 18.6386 11.9558 12.8103 20.4711C12.5519 20.8497 12.8407 21.3497 13.3194 21.3497H18.6614C19.0261 21.3497 19.3681 21.1997 19.596 20.9354C20.128 20.3282 20.6979 19.7424 21.2982 19.1852C23.7754 16.8635 26.6554 15.0347 29.8621 13.7631C33.1752 12.4487 36.701 11.7772 40.3409 11.7772C43.9807 11.7772 47.5066 12.4416 50.8197 13.7631C54.0264 15.0347 56.9064 16.8635 59.3836 19.1852C61.8608 21.5069 63.7985 24.2144 65.1587 27.2218C66.5645 30.3365 67.2712 33.644 67.2712 37.0658C67.2712 40.4877 66.5569 43.7952 65.1587 46.9098C63.8061 49.9173 61.8608 52.6248 59.3836 54.9465C56.9064 57.2682 54.0264 59.097 50.8197 60.3685C47.504 61.6851 43.9402 62.3605 40.3409 62.3545C36.701 62.3545 33.1752 61.683 29.8621 60.3685C26.6617 59.0982 23.7534 57.257 21.2982 54.9465C20.6979 54.3821 20.1356 53.7963 19.596 53.1963C19.3681 52.9319 19.0185 52.7819 18.6614 52.7819H13.3194C12.8407 52.7819 12.5443 53.282 12.8103 53.6606C18.631 62.1544 28.783 67.7837 40.3409 67.7837C58.2894 67.7837 72.864 54.2035 73.0463 37.3802C73.2287 20.2853 58.6313 6.39087 40.4245 6.34801ZM30.7983 45.0668V39.6376H6.93786C6.60351 39.6376 6.32996 39.3804 6.32996 39.0661V35.0656C6.32996 34.7513 6.60351 34.4941 6.93786 34.4941H30.7983V29.0649C30.7983 28.5863 31.391 28.3148 31.7861 28.6149L42.5689 36.6158C42.6415 36.6692 42.7003 36.7375 42.7407 36.8155C42.7811 36.8935 42.8021 36.9791 42.8021 37.0658C42.8021 37.1526 42.7811 37.2382 42.7407 37.3161C42.7003 37.3941 42.6415 37.4624 42.5689 37.5159L31.7861 45.5168C31.391 45.8097 30.7983 45.5454 30.7983 45.0668Z" fill="white"/>
</svg>
