<svg width="77" height="77" viewBox="0 0 77 77" fill="none" xmlns="http://www.w3.org/2000/svg">
<path d="M65.6281 11.372L73.6938 12.9841C74.1269 13.0708 74.4831 13.3884 74.6082 13.8167C74.6714 14.0248 74.677 14.2461 74.6245 14.4571C74.5719 14.6681 74.4632 14.8609 74.3098 15.015L67.7022 21.6274C66.9105 22.4147 65.8399 22.8575 64.7233 22.8594H59.2419L45.4781 36.628C45.7407 37.6194 45.789 38.6555 45.6198 39.6671C45.4506 40.6787 45.0677 41.6426 44.4967 42.4947C43.9258 43.3467 43.1798 44.0673 42.3085 44.6084C41.4372 45.1496 40.4605 45.4988 39.4437 45.6329C38.4268 45.767 37.3931 45.6828 36.4113 45.3861C35.4295 45.0893 34.5222 44.5867 33.7499 43.9118C32.9776 43.2369 32.3579 42.4052 31.9322 41.472C31.5066 40.5388 31.2847 39.5257 31.2813 38.5C31.281 37.3923 31.5357 36.2994 32.0256 35.3059C32.5155 34.3124 33.2275 33.445 34.1064 32.7708C34.9853 32.0966 36.0076 31.6337 37.0941 31.418C38.1807 31.2022 39.3022 31.2394 40.3721 31.5267L54.1406 17.7533V12.2815C54.1406 11.165 54.5834 10.0918 55.3726 9.30259L61.985 2.69021C62.1391 2.53683 62.332 2.42809 62.543 2.37555C62.754 2.32301 62.9753 2.32864 63.1833 2.39184C63.6116 2.51696 63.9292 2.87309 64.0159 3.30621L65.6281 11.372Z" fill="white"/>
<path d="M9.62496 38.5C9.62991 42.6289 10.5203 46.7088 12.2361 50.4644C13.9518 54.2199 16.4531 57.5639 19.5711 60.2706C22.6891 62.9773 26.3513 64.9838 30.3107 66.1548C34.2701 67.3258 38.4346 67.6341 42.5233 67.0588C46.6119 66.4834 50.5297 65.038 54.0122 62.8198C57.4947 60.6017 60.461 57.6624 62.711 54.2004C64.961 50.7384 66.4424 46.8341 67.0552 42.7509C67.668 38.6676 67.3979 34.5005 66.2633 30.5305C66.104 30.0667 66.0407 29.5753 66.0774 29.0863C66.1141 28.5972 66.2499 28.1208 66.4766 27.6859C66.7032 27.251 67.0161 26.8668 67.396 26.5567C67.7759 26.2466 68.2149 26.017 68.6864 25.882C69.1578 25.747 69.6518 25.7093 70.1383 25.7713C70.6248 25.8333 71.0935 25.9936 71.5161 26.2425C71.9386 26.4915 72.306 26.8238 72.596 27.2193C72.886 27.6148 73.0925 28.0651 73.2029 28.543C75.3999 36.231 74.9826 44.431 72.0164 51.8563C69.0502 59.2816 63.7029 65.5122 56.8135 69.5705C49.9241 73.6288 41.8824 75.2853 33.95 74.28C26.0176 73.2747 18.6433 69.6645 12.9841 64.0159C7.33105 58.3581 3.71702 50.9831 2.70942 43.0489C1.70182 35.1146 3.35771 27.0704 7.4171 20.1792C11.4765 13.288 17.7095 7.93998 25.1376 4.97489C32.5656 2.0098 40.768 1.59552 48.457 3.79708C49.3726 4.06471 50.1449 4.68387 50.6054 5.51924C51.0658 6.35461 51.1768 7.33828 50.9142 8.25526C50.6515 9.17225 50.0366 9.94799 49.2038 10.413C48.3709 10.8779 47.3879 10.9943 46.4695 10.7367C42.1698 9.50205 37.6422 9.28326 33.2435 10.0976C28.8449 10.9119 24.6956 12.7371 21.123 15.4292C17.5503 18.1213 14.652 21.6067 12.6566 25.6104C10.6613 29.6141 9.62343 34.0266 9.62496 38.5Z" fill="white"/>
<path d="M24.0625 38.5C24.0628 41.1304 24.7812 43.7109 26.1403 45.963C27.4995 48.2152 29.4477 50.0535 31.7749 51.2797C34.102 52.506 36.7198 53.0736 39.3459 52.9213C41.9719 52.769 44.5066 51.9027 46.6764 50.4157C48.8459 48.925 50.5665 46.8695 51.6522 44.4716C52.7379 42.0737 53.1474 39.4246 52.8364 36.8108C52.7523 36.1765 52.8388 35.5313 53.0869 34.9415C53.335 34.3517 53.7359 33.8388 54.2482 33.4554C54.7604 33.0721 55.3656 32.8322 56.0014 32.7605C56.6372 32.6888 57.2807 32.7878 57.8655 33.0474C58.4502 33.3036 58.9564 33.7104 59.3326 34.2261C59.7089 34.7418 59.9416 35.348 60.007 35.983C60.53 40.4495 59.6495 44.968 57.4878 48.9114C55.3261 52.8547 51.9904 56.0273 47.9438 57.9888C43.8971 59.9503 39.3402 60.6034 34.9055 59.8575C30.4708 59.1116 26.3783 57.0036 23.1961 53.8261C20.0138 50.6487 17.8996 46.5594 17.1469 42.1259C16.3943 37.6923 17.0405 33.1344 18.9958 29.0848C20.9512 25.0352 24.1187 21.6947 28.0588 19.527C31.9988 17.3593 36.516 16.472 40.9832 16.9881C41.4616 17.0325 41.9262 17.1719 42.35 17.3982C42.7738 17.6245 43.1481 17.9331 43.451 18.3059C43.754 18.6788 43.9794 19.1083 44.1142 19.5694C44.249 20.0305 44.2903 20.5139 44.2359 20.9912C44.1814 21.4685 44.0322 21.9301 43.7971 22.349C43.5619 22.7679 43.2454 23.1356 42.8663 23.4306C42.4872 23.7257 42.053 23.942 41.5891 24.067C41.1253 24.1921 40.6411 24.2232 40.1651 24.1587C38.1422 23.9238 36.0925 24.1196 34.1506 24.7331C32.2087 25.3466 30.4186 26.364 28.8978 27.7184C27.377 29.0728 26.16 30.7337 25.3266 32.5919C24.4933 34.45 24.0625 36.4635 24.0625 38.5Z" fill="white"/>
</svg>
