<svg width="77" height="77" viewBox="0 0 77 77" fill="none" xmlns="http://www.w3.org/2000/svg">
<path d="M32.0834 12.8334H44.9167V25.6667H32.0834V12.8334ZM12.8334 51.3334H25.6667V64.1667H12.8334V51.3334ZM12.8334 32.0834H25.6667V44.9167H12.8334V32.0834ZM12.8334 12.8334H25.6667V25.6667H12.8334V12.8334ZM44.9167 39.8475V32.0834H32.0834V44.9167H39.8475L44.9167 39.8475ZM66.99 36.2221L63.2363 32.4684C63.1141 32.3461 62.9691 32.2492 62.8094 32.183C62.6498 32.1169 62.4787 32.0828 62.3059 32.0828C62.1331 32.0828 61.962 32.1169 61.8023 32.183C61.6427 32.2492 61.4976 32.3461 61.3755 32.4684L58.5521 35.2917L64.1667 40.9063L66.99 38.083C67.1123 37.9608 67.2092 37.8158 67.2754 37.6561C67.3415 37.4965 67.3756 37.3253 67.3756 37.1525C67.3756 36.9797 67.3415 36.8086 67.2754 36.649C67.2092 36.4893 67.1123 36.3443 66.99 36.2221ZM35.2917 58.5521V64.1667H40.9063L62.3059 42.7671L56.6913 37.1525L35.2917 58.5521ZM51.3334 12.8334H64.1667V25.6667H51.3334V12.8334Z" fill="white"/>
</svg>
