<svg width="45" height="49" viewBox="0 0 45 49" fill="none" xmlns="http://www.w3.org/2000/svg">
<g filter="url(#filter0_d_157_888)">
<path d="M22.6249 3.5083C12.1515 3.5083 3.6593 12.0005 3.6593 22.4739C3.6593 32.9474 12.1515 41.4396 22.6249 41.4396C33.0984 41.4396 41.5906 32.9474 41.5906 22.4739C41.5906 12.0005 33.0984 3.5083 22.6249 3.5083ZM31.7394 17.8045C31.7521 18.0035 31.7521 18.2109 31.7521 18.4141C31.7521 24.6287 27.0192 31.7874 18.3704 31.7874C15.7033 31.7874 13.231 31.0127 11.1482 29.6792C11.5292 29.7215 11.8933 29.7384 12.2827 29.7384C14.4841 29.7384 16.5077 28.9934 18.1206 27.7318C16.0547 27.6895 14.319 26.3348 13.7263 24.4721C14.4502 24.5779 15.1022 24.5779 15.8473 24.3874C14.7835 24.1713 13.8274 23.5936 13.1413 22.7524C12.4553 21.9112 12.0816 20.8585 12.0838 19.773V19.7138C12.7061 20.0651 13.4385 20.281 14.2047 20.3107C13.5606 19.8814 13.0323 19.2998 12.6668 18.6174C12.3012 17.9351 12.1097 17.1731 12.1092 16.399C12.1092 15.5227 12.3378 14.7226 12.7484 14.0283C13.9291 15.4818 15.4025 16.6705 17.0727 17.5173C18.7429 18.3641 20.5726 18.8499 22.4429 18.9433C21.7782 15.7471 24.1659 13.1604 27.0361 13.1604C28.3908 13.1604 29.61 13.7277 30.4694 14.6421C31.532 14.4432 32.548 14.0452 33.454 13.5118C33.1026 14.5998 32.366 15.5185 31.3881 16.0984C32.3363 15.9968 33.2508 15.7344 34.0974 15.3661C33.4582 16.3059 32.6581 17.1398 31.7394 17.8045Z" fill="#0587FF"/>
</g>
<defs>
<filter id="filter0_d_157_888" x="-2.45005" y="0.798828" width="50.15" height="50.1501" filterUnits="userSpaceOnUse" color-interpolation-filters="sRGB">
<feFlood flood-opacity="0" result="BackgroundImageFix"/>
<feColorMatrix in="SourceAlpha" type="matrix" values="0 0 0 0 0 0 0 0 0 0 0 0 0 0 0 0 0 0 127 0" result="hardAlpha"/>
<feOffset dy="3.4"/>
<feGaussianBlur stdDeviation="1.7"/>
<feComposite in2="hardAlpha" operator="out"/>
<feColorMatrix type="matrix" values="0 0 0 0 0 0 0 0 0 0 0 0 0 0 0 0 0 0 0.25 0"/>
<feBlend mode="normal" in2="BackgroundImageFix" result="effect1_dropShadow_157_888"/>
<feBlend mode="normal" in="SourceGraphic" in2="effect1_dropShadow_157_888" result="shape"/>
</filter>
</defs>
</svg>
