<svg width="94" height="74" viewBox="0 0 94 74" fill="none" xmlns="http://www.w3.org/2000/svg">
<g clip-path="url(#clip0_157_943)">
<path d="M88.706 46.1906H79.3685V55.3345H82.6366C83.4099 55.3345 84.0372 55.8488 84.0372 56.4775V58.7634C84.0372 59.3921 83.4099 59.9064 82.6366 59.9064H10.7381C9.96483 59.9064 9.33747 59.3921 9.33747 58.7634V56.4775C9.33747 55.8488 9.96483 55.3345 10.7381 55.3345H14.0062V46.1906H4.66873C2.08634 46.1906 0 48.2337 0 50.7625V64.4784C0 67.0073 2.08634 69.0503 4.66873 69.0503H88.706C91.2884 69.0503 93.3747 67.0073 93.3747 64.4784V50.7625C93.3747 48.2337 91.2884 46.1906 88.706 46.1906ZM74.6998 55.3345V9.65779C74.6998 7.10035 72.5842 5.04297 69.9873 5.04297H23.402C20.7905 5.04297 18.6749 7.11464 18.6749 9.65779V55.3345H74.6998ZM30.8136 29.3315L34.534 25.7168C35.1468 25.1167 36.1389 25.1167 36.7517 25.7311L42.7773 31.6746L56.6668 18.1873C57.2795 17.5873 58.2716 17.5873 58.8844 18.2016L62.5756 21.8449C63.1884 22.445 63.1884 23.4165 62.561 24.0166L43.8423 42.1901C43.2296 42.7902 42.2375 42.7902 41.6247 42.1758L30.8136 31.5032C30.1863 30.9031 30.2009 29.9316 30.8136 29.3315Z" fill="white"/>
</g>
<defs>
<clipPath id="clip0_157_943">
<rect width="93.3747" height="73.1513" fill="white" transform="translate(0 0.470947)"/>
</clipPath>
</defs>
</svg>
