<svg width="20" height="13" viewBox="0 0 20 13" fill="none" xmlns="http://www.w3.org/2000/svg">
<path d="M1 7.61011C4.6 -0.389893 15.4 -0.389893 19 7.61011" stroke="#888888" stroke-width="1.5" stroke-linecap="round" stroke-linejoin="round"/>
<path d="M10 11.6101C9.60603 11.6101 9.21593 11.5325 8.85195 11.3817C8.48797 11.231 8.15726 11.01 7.87868 10.7314C7.6001 10.4529 7.37913 10.1221 7.22836 9.75816C7.0776 9.39418 7 9.00407 7 8.61011C7 8.21614 7.0776 7.82603 7.22836 7.46206C7.37913 7.09808 7.6001 6.76736 7.87868 6.48879C8.15726 6.21021 8.48797 5.98923 8.85195 5.83847C9.21593 5.6877 9.60603 5.61011 10 5.61011C10.7956 5.61011 11.5587 5.92618 12.1213 6.48879C12.6839 7.0514 13 7.81446 13 8.61011C13 9.40576 12.6839 10.1688 12.1213 10.7314C11.5587 11.294 10.7956 11.6101 10 11.6101Z" stroke="#888888" stroke-width="1.5" stroke-linecap="round" stroke-linejoin="round"/>
</svg>
