<svg width="41" height="37" viewBox="0 0 41 37" fill="none" xmlns="http://www.w3.org/2000/svg">
<g clip-path="url(#clip0_309_100)" filter="url(#filter0_i_309_100)">
<path d="M40.0999 18.3087C40.0999 8.19544 31.1561 -0.00256348 20.1249 -0.00256348C9.0887 -0.000288781 0.144897 8.19544 0.144897 18.311C0.144897 27.4485 7.45075 35.0232 16.9988 36.3971V23.602H11.9301V18.311H17.0038V14.2734C17.0038 9.68536 19.9876 7.15135 24.5494 7.15135C26.7366 7.15135 29.0213 7.50848 29.0213 7.50848V12.0124H26.5019C24.0225 12.0124 23.2485 13.425 23.2485 14.8739V18.3087H28.7865L27.9027 23.5997H23.246V36.3948C32.794 35.0209 40.0999 27.4462 40.0999 18.3087Z" fill="#BCBCBC"/>
</g>
<defs>
<filter id="filter0_i_309_100" x="0.150024" y="0" width="39.95" height="40.3951" filterUnits="userSpaceOnUse" color-interpolation-filters="sRGB">
<feFlood flood-opacity="0" result="BackgroundImageFix"/>
<feBlend mode="normal" in="SourceGraphic" in2="BackgroundImageFix" result="shape"/>
<feColorMatrix in="SourceAlpha" type="matrix" values="0 0 0 0 0 0 0 0 0 0 0 0 0 0 0 0 0 0 127 0" result="hardAlpha"/>
<feOffset dy="4"/>
<feGaussianBlur stdDeviation="2"/>
<feComposite in2="hardAlpha" operator="arithmetic" k2="-1" k3="1"/>
<feColorMatrix type="matrix" values="0 0 0 0 0 0 0 0 0 0 0 0 0 0 0 0 0 0 0.25 0"/>
<feBlend mode="normal" in2="shape" result="effect1_innerShadow_309_100"/>
</filter>
<clipPath id="clip0_309_100">
<rect width="39.95" height="36.3951" fill="white" transform="translate(0.150024)"/>
</clipPath>
</defs>
</svg>
