<svg width="48" height="44" viewBox="0 0 48 44" fill="none" xmlns="http://www.w3.org/2000/svg">
<g filter="url(#filter0_di_309_102)">
<path d="M42.9269 11.0596C42.9054 9.59649 42.6043 8.14791 42.0369 6.77867C41.5448 5.62373 40.7933 4.57483 39.8303 3.699C38.8674 2.82317 37.7141 2.13967 36.4442 1.69216C34.9581 1.18477 33.3881 0.910424 31.801 0.880787C29.7577 0.797718 29.1099 0.774536 23.9229 0.774536C18.736 0.774536 18.0712 0.774536 16.0427 0.880787C14.4563 0.910642 12.8871 1.18499 11.4016 1.69216C10.1316 2.13936 8.97811 2.82275 8.01509 3.69862C7.05207 4.57449 6.30067 5.62355 5.80898 6.77867C5.24999 8.12928 4.94899 9.55686 4.919 10.9997C4.82766 12.8601 4.80005 13.4493 4.80005 18.1668C4.80005 22.8844 4.80005 23.4871 4.919 25.3339C4.95086 26.7789 5.25035 28.2046 5.80898 29.5588C6.3015 30.7136 7.05345 31.7623 8.0168 32.6378C8.98014 33.5132 10.1337 34.1964 11.4037 34.6434C12.8851 35.1712 14.4547 35.4652 16.0448 35.5128C18.0903 35.5958 18.7381 35.6209 23.9251 35.6209C29.112 35.6209 29.7768 35.6209 31.8053 35.5128C33.3923 35.4843 34.9624 35.2106 36.4485 34.7033C37.718 34.2553 38.871 33.5716 39.8339 32.6958C40.7968 31.8201 41.5485 30.7714 42.0411 29.6168C42.5998 28.2645 42.8992 26.8388 42.9311 25.3919C43.0224 23.5335 43.05 22.9443 43.05 18.2248C43.0458 13.5072 43.0458 12.9084 42.9269 11.0596ZM23.9102 27.088C18.4853 27.088 14.0907 23.0911 14.0907 18.1572C14.0907 13.2233 18.4853 9.22631 23.9102 9.22631C26.5145 9.22631 29.0121 10.1672 30.8536 11.8421C32.6951 13.517 33.7297 15.7886 33.7297 18.1572C33.7297 20.5258 32.6951 22.7974 30.8536 24.4722C29.0121 26.1471 26.5145 27.088 23.9102 27.088ZM34.1205 10.9785C33.8197 10.9787 33.5219 10.925 33.2439 10.8205C32.966 10.7159 32.7135 10.5625 32.5008 10.3691C32.2881 10.1757 32.1195 9.94598 32.0045 9.69321C31.8895 9.44043 31.8305 9.16951 31.8308 8.89596C31.8308 8.62261 31.89 8.35193 32.005 8.09939C32.12 7.84684 32.2886 7.61737 32.5011 7.42408C32.7136 7.23079 32.9659 7.07747 33.2436 6.97286C33.5213 6.86825 33.8189 6.81441 34.1195 6.81441C34.42 6.81441 34.7176 6.86825 34.9953 6.97286C35.273 7.07747 35.5253 7.23079 35.7378 7.42408C35.9503 7.61737 36.1189 7.84684 36.2339 8.09939C36.3489 8.35193 36.4081 8.62261 36.4081 8.89596C36.4081 10.0473 35.3843 10.9785 34.1205 10.9785Z" fill="#BCBCBC"/>
<path d="M23.9102 23.9585C27.433 23.9585 30.2887 21.3611 30.2887 18.1572C30.2887 14.9532 27.433 12.3559 23.9102 12.3559C20.3874 12.3559 17.5316 14.9532 17.5316 18.1572C17.5316 21.3611 20.3874 23.9585 23.9102 23.9585Z" fill="#BCBCBC"/>
</g>
<defs>
<filter id="filter0_di_309_102" x="0.800049" y="0.774536" width="46.25" height="42.8464" filterUnits="userSpaceOnUse" color-interpolation-filters="sRGB">
<feFlood flood-opacity="0" result="BackgroundImageFix"/>
<feColorMatrix in="SourceAlpha" type="matrix" values="0 0 0 0 0 0 0 0 0 0 0 0 0 0 0 0 0 0 127 0" result="hardAlpha"/>
<feOffset dy="4"/>
<feGaussianBlur stdDeviation="2"/>
<feComposite in2="hardAlpha" operator="out"/>
<feColorMatrix type="matrix" values="0 0 0 0 0 0 0 0 0 0 0 0 0 0 0 0 0 0 0.25 0"/>
<feBlend mode="normal" in2="BackgroundImageFix" result="effect1_dropShadow_309_102"/>
<feBlend mode="normal" in="SourceGraphic" in2="effect1_dropShadow_309_102" result="shape"/>
<feColorMatrix in="SourceAlpha" type="matrix" values="0 0 0 0 0 0 0 0 0 0 0 0 0 0 0 0 0 0 127 0" result="hardAlpha"/>
<feOffset dy="4"/>
<feGaussianBlur stdDeviation="2"/>
<feComposite in2="hardAlpha" operator="arithmetic" k2="-1" k3="1"/>
<feColorMatrix type="matrix" values="0 0 0 0 0 0 0 0 0 0 0 0 0 0 0 0 0 0 0.25 0"/>
<feBlend mode="normal" in2="shape" result="effect2_innerShadow_309_102"/>
</filter>
</defs>
</svg>
