<svg width="633" height="411" viewBox="0 0 633 411" fill="none" xmlns="http://www.w3.org/2000/svg">
<g clip-path="url(#clip0_16_3)">
<path d="M126.121 411C195.776 411 252.242 406.998 252.242 402.061C252.242 397.124 195.776 393.122 126.121 393.122C56.4663 393.122 0 397.124 0 402.061C0 406.998 56.4663 411 126.121 411Z" fill="#E6E6E6"/>
<path d="M96.4046 91.1938C118.353 82.4816 145.691 88.0015 172.389 91.8326C172.638 87.1932 175.649 81.5468 172.495 78.3101C168.662 74.3777 169.015 70.246 171.321 66.0904C177.218 55.464 168.769 44.157 160.238 34.7553C158.315 32.641 155.885 30.9797 153.145 29.9065C150.405 28.8332 147.433 28.3783 144.469 28.5785L128.666 29.6319C124.82 29.8882 121.15 31.2344 118.147 33.4904C115.144 35.7464 112.951 38.8045 111.861 42.2556C108.087 47.0448 106.068 51.8208 107.339 56.572C101.687 60.1766 100.737 64.5276 103.277 69.4327C105.431 72.5211 105.408 75.5274 103.179 78.4505C100.252 82.1772 98.0106 86.3326 96.5459 90.7463L96.4046 91.1938Z" fill="#2F2E41"/>
<path d="M618 355.303H170.655C166.677 355.303 162.862 353.828 160.049 351.203C157.236 348.578 155.656 345.017 155.656 341.305C317.818 323.717 476.933 323.717 633 341.305C633 345.017 631.42 348.578 628.607 351.203C625.794 353.828 621.978 355.303 618 355.303Z" fill="#2F2E41"/>
<path d="M633 342.128L155.656 341.305L210.978 254.435L211.243 254.023V62.5711C211.243 60.2473 211.733 57.9462 212.686 55.7993C213.639 53.6523 215.035 51.7015 216.796 50.0583C218.557 48.4152 220.647 47.1117 222.948 46.2225C225.248 45.3333 227.714 44.8758 230.204 44.876H555.804C558.294 44.8758 560.76 45.3333 563.061 46.2225C565.361 47.1117 567.452 48.4152 569.213 50.0583C570.973 51.7015 572.37 53.6523 573.323 55.7993C574.276 57.9462 574.766 60.2473 574.766 62.5711V255.34L633 342.128Z" fill="#3F3D56"/>
<path d="M229.772 57.2273C228.135 57.229 226.565 57.8368 225.407 58.9174C224.249 59.998 223.598 61.463 223.596 62.9912V237.555C223.598 239.083 224.249 240.548 225.407 241.629C226.565 242.709 228.135 243.317 229.772 243.319H558.884C560.521 243.317 562.091 242.709 563.249 241.628C564.407 240.548 565.058 239.083 565.06 237.555V62.9912C565.058 61.4631 564.407 59.998 563.249 58.9175C562.091 57.8369 560.521 57.2291 558.884 57.2273H229.772Z" fill="white"/>
<path d="M231.151 266.374C230.645 266.375 230.15 266.511 229.724 266.766C229.298 267.02 228.959 267.383 228.746 267.812L211.7 302.395C211.514 302.772 211.433 303.186 211.464 303.599C211.494 304.012 211.636 304.412 211.875 304.76C212.115 305.109 212.444 305.396 212.834 305.595C213.223 305.794 213.66 305.898 214.104 305.898H572.585C573.036 305.898 573.48 305.79 573.874 305.585C574.268 305.38 574.599 305.085 574.836 304.726C575.074 304.368 575.209 303.959 575.229 303.539C575.249 303.118 575.154 302.7 574.952 302.323L556.423 267.74C556.204 267.329 555.867 266.983 555.448 266.741C555.03 266.5 554.548 266.373 554.056 266.374H231.151Z" fill="#2F2E41"/>
<path d="M393.004 54.3453C395.197 54.3453 396.975 52.6863 396.975 50.6399C396.975 48.5935 395.197 46.9346 393.004 46.9346C390.811 46.9346 389.034 48.5935 389.034 50.6399C389.034 52.6863 390.811 54.3453 393.004 54.3453Z" fill="white"/>
<path d="M357.769 312.485C357.187 312.486 356.621 312.665 356.159 312.996C355.698 313.326 355.365 313.789 355.213 314.313L350.937 329.135C350.831 329.501 350.817 329.885 350.896 330.257C350.975 330.629 351.145 330.979 351.392 331.28C351.639 331.581 351.957 331.824 352.321 331.992C352.685 332.16 353.086 332.247 353.493 332.247H434.812C435.234 332.247 435.65 332.153 436.025 331.973C436.4 331.792 436.723 331.531 436.968 331.21C437.213 330.889 437.372 330.518 437.432 330.128C437.492 329.739 437.451 329.341 437.313 328.969L431.815 314.147C431.635 313.662 431.297 313.241 430.849 312.944C430.401 312.646 429.864 312.486 429.314 312.485H357.769Z" fill="#2F2E41"/>
<path d="M574.766 251.141V254.434H210.978L211.252 254.023V251.141H574.766Z" fill="#2F2E41"/>
<path d="M564.619 115.278C598.73 115.278 626.382 89.472 626.382 57.6389C626.382 25.8058 598.73 0 564.619 0C530.508 0 502.855 25.8058 502.855 57.6389C502.855 89.472 530.508 115.278 564.619 115.278Z" fill="#015FC7"/>
<path d="M590.207 82.753H539.031C538.095 82.7521 537.198 82.4048 536.536 81.7873C535.875 81.1698 535.503 80.3326 535.502 79.4593V50.6398C535.503 49.7666 535.875 48.9294 536.537 48.3119C537.198 47.6944 538.095 47.3471 539.031 47.3462H590.207C591.142 47.3471 592.04 47.6944 592.701 48.3119C593.363 48.9294 593.735 49.7666 593.736 50.6398V79.4593C593.735 80.3326 593.363 81.1698 592.701 81.7873C592.04 82.4048 591.142 82.7521 590.207 82.753ZM539.031 50.6399V79.4593H590.209L590.207 50.6398L539.031 50.6399Z" fill="white"/>
<path d="M580.501 50.64H548.737V37.4654C548.737 27.9229 555.416 20.9971 564.619 20.9971C573.821 20.9971 580.501 27.9229 580.501 37.4654L580.501 50.64ZM552.266 47.3463H576.972V37.4654C576.972 29.7084 571.892 24.2907 564.619 24.2907C557.346 24.2907 552.266 29.7085 552.266 37.4654L552.266 47.3463Z" fill="white"/>
<path d="M564.619 67.5199C566.568 67.5199 568.148 66.0453 568.148 64.2263C568.148 62.4072 566.568 60.9326 564.619 60.9326C562.67 60.9326 561.09 62.4072 561.09 64.2263C561.09 66.0453 562.67 67.5199 564.619 67.5199Z" fill="white"/>
<path d="M521.503 184.109H267.153C265.904 184.107 264.707 183.644 263.824 182.82C262.941 181.996 262.445 180.878 262.443 179.713V120.833C262.445 119.668 262.941 118.551 263.824 117.726C264.707 116.902 265.904 116.439 267.153 116.438H521.503C522.751 116.439 523.949 116.902 524.832 117.726C525.715 118.551 526.211 119.668 526.213 120.833V179.713C526.211 180.878 525.715 181.996 524.832 182.82C523.949 183.644 522.751 184.107 521.503 184.109ZM267.153 118.196C266.404 118.197 265.686 118.475 265.156 118.969C264.626 119.464 264.328 120.134 264.327 120.833V179.713C264.328 180.412 264.626 181.083 265.156 181.577C265.686 182.071 266.404 182.35 267.153 182.35H521.503C522.252 182.35 522.97 182.071 523.5 181.577C524.03 181.083 524.328 180.412 524.329 179.713V120.833C524.328 120.134 524.03 119.463 523.5 118.969C522.97 118.475 522.252 118.197 521.503 118.196L267.153 118.196Z" fill="#E6E6E6"/>
<path d="M306.674 165.919C317.27 165.919 325.861 157.903 325.861 148.014C325.861 138.125 317.27 130.108 306.674 130.108C296.077 130.108 287.487 138.125 287.487 148.014C287.487 157.903 296.077 165.919 306.674 165.919Z" fill="#E6E6E6"/>
<path d="M350.986 136.077C350.566 136.076 350.149 136.153 349.761 136.302C349.372 136.452 349.019 136.672 348.722 136.949C348.424 137.226 348.188 137.555 348.027 137.918C347.866 138.28 347.783 138.669 347.783 139.061C347.783 139.453 347.866 139.842 348.027 140.204C348.188 140.566 348.424 140.896 348.722 141.173C349.019 141.45 349.372 141.67 349.761 141.819C350.149 141.969 350.566 142.046 350.986 142.045H501.739C502.587 142.045 503.4 141.731 504 141.171C504.6 140.611 504.937 139.852 504.937 139.061C504.937 138.269 504.6 137.51 504 136.951C503.4 136.391 502.587 136.077 501.739 136.077H350.986Z" fill="#E6E6E6"/>
<path d="M350.986 153.982C350.138 153.982 349.325 154.297 348.725 154.856C348.125 155.416 347.788 156.175 347.788 156.966C347.788 157.758 348.125 158.517 348.725 159.077C349.325 159.636 350.138 159.951 350.986 159.951H415.855C416.704 159.951 417.517 159.636 418.117 159.077C418.716 158.517 419.053 157.758 419.053 156.966C419.053 156.175 418.716 155.416 418.117 154.856C417.517 154.297 416.704 153.982 415.855 153.982H350.986Z" fill="#E6E6E6"/>
<path d="M210.352 155.189L163.334 178.517L162.739 159.077C178.085 156.687 192.686 152.524 206.186 145.747L211.104 134.409C211.64 133.174 212.51 132.09 213.631 131.263C214.751 130.437 216.083 129.896 217.495 129.695C218.906 129.494 220.35 129.639 221.684 130.116C223.017 130.592 224.195 131.385 225.102 132.415C226.428 133.921 227.091 135.842 226.957 137.788C226.822 139.734 225.9 141.56 224.377 142.895L210.352 155.189Z" fill="#FFB8B8"/>
<path d="M95.4674 289.876C95.1244 288.702 95.0516 287.473 95.2537 286.271C95.4559 285.069 95.9284 283.92 96.6403 282.901L106.969 268.108C109.412 264.61 113.16 262.082 117.487 261.017C121.814 259.952 126.411 260.424 130.385 262.343C126.044 269.239 126.649 275.288 131.884 280.544C123.758 284.247 116.247 289.025 109.585 294.731C108.368 295.505 106.972 295.997 105.511 296.165C104.05 296.333 102.567 296.173 101.186 295.697C99.8045 295.222 98.5649 294.446 97.5703 293.434C96.5756 292.421 95.8546 291.201 95.4674 289.876Z" fill="#2F2E41"/>
<path d="M212.494 270.534C210.931 272.965 208.725 274.98 206.087 276.386C203.449 277.793 200.468 278.542 197.43 278.564L128.814 279.049L125.838 262.942L156.192 254.61L130.6 236.281L158.572 205.733L209.38 249.925C212.35 252.508 214.279 255.964 214.846 259.715C215.413 263.467 214.582 267.286 212.494 270.534Z" fill="#DDDBFF"/>
<path d="M118.101 380.692H102.031C87.6032 288.397 72.9167 195.844 116.315 161.299L167.5 169.075L160.953 209.621L132.385 240.169L118.101 380.692Z" fill="#DDDBFF"/>
<path d="M132.227 401.599C130.969 401.919 129.653 401.987 128.364 401.799C127.076 401.61 125.845 401.169 124.753 400.505L107.305 398.316C103.555 396.037 100.847 392.539 99.7052 388.501C98.5635 384.463 99.0696 380.174 101.125 376.464C108.515 380.515 114.996 379.95 120.629 375.064C124.609 382.564 131.167 382.106 137.429 388.424C138.258 389.559 138.785 390.863 138.965 392.226C139.145 393.59 138.974 394.973 138.465 396.262C137.956 397.551 137.124 398.708 136.039 399.637C134.954 400.565 133.647 401.238 132.227 401.599Z" fill="#2F2E41"/>
<path d="M156.192 99.647L126.433 92.9819C131.376 83.5408 131.783 73.0356 129.409 61.8782L149.645 61.3228C150.279 75.1973 152.197 88.1597 156.192 99.647Z" fill="#FFB8B8"/>
<path d="M164.37 185.799C142.707 199.575 127.401 186.27 115.72 165.743C117.343 153.182 114.715 138.15 109.848 121.817C107.683 114.613 108.491 106.913 112.113 100.238C115.734 93.563 121.906 88.3975 129.409 85.7615L155.001 95.7591C176.732 112.289 181.01 130.195 172.857 149.08L164.37 185.799Z" fill="#015FC7"/>
<path d="M102.031 113.533L78.2245 125.197L120.482 148.524L126.361 162.059C126.754 162.963 126.945 163.931 126.923 164.906C126.902 165.88 126.667 166.841 126.235 167.728C125.803 168.615 125.181 169.411 124.408 170.067C123.636 170.723 122.728 171.225 121.74 171.543C120.618 171.904 119.421 172.018 118.243 171.875C117.066 171.733 115.94 171.338 114.953 170.721C113.966 170.105 113.146 169.284 112.556 168.322C111.966 167.36 111.623 166.284 111.554 165.178L110.959 155.745L57.2506 139.205C55.4411 138.647 53.7911 137.713 52.4258 136.473C51.0604 135.232 50.0154 133.718 49.3699 132.045C48.4291 129.606 48.3812 126.945 49.2338 124.478C50.0863 122.011 51.7912 119.877 54.0816 118.411L97.27 90.7603L102.031 113.533Z" fill="#FFB8B8"/>
<path d="M125.838 115.754C115.909 111.694 106.881 116.105 95.4845 119.642L93.699 90.2048C105.015 84.5764 115.804 83.0589 125.838 87.4277L125.838 115.754Z" fill="#015FC7"/>
<path d="M137.715 75.9041C148.209 75.9041 156.715 67.9657 156.715 58.1732C156.715 48.3808 148.209 40.4424 137.715 40.4424C127.222 40.4424 118.716 48.3808 118.716 58.1732C118.716 67.9657 127.222 75.9041 137.715 75.9041Z" fill="#FFB8B8"/>
<path d="M160.445 55.9361C141.634 57.6555 127.3 54.7844 118.139 46.6096V40.0261H158.849L160.445 55.9361Z" fill="#2F2E41"/>
</g>
<defs>
<clipPath id="clip0_16_3">
<rect width="633" height="411" fill="white"/>
</clipPath>
</defs>
</svg>
