<svg width="322" height="562" viewBox="0 0 322 562" fill="none" xmlns="http://www.w3.org/2000/svg">
<path d="M322 165.393C322.057 206.165 307.396 245.51 280.851 275.821V275.843C277.098 280.13 273.134 284.217 268.975 288.088C264.719 292.047 260.257 295.767 255.609 299.23C252.366 301.66 249.036 303.956 245.618 306.117C241.564 308.706 237.394 311.099 233.107 313.298C229.929 314.941 226.687 316.471 223.378 317.889C203.629 326.415 182.42 330.8 160.997 330.787C148.898 330.8 136.837 329.411 125.041 326.645C119.586 325.371 114.203 323.793 108.915 321.918C106.877 321.22 104.839 320.455 102.823 319.645C90.6005 314.791 79.0092 308.403 68.3135 300.625C45.7062 284.274 27.579 262.218 15.678 236.581C3.77711 210.944 -1.49638 182.591 0.365517 154.253C2.22742 125.915 11.162 98.547 26.3085 74.7856C41.4551 51.0242 62.3031 31.6703 86.8442 18.5882C111.385 5.50614 138.792 -0.863157 166.425 0.0939471C194.058 1.05105 220.985 9.30228 244.613 24.0527C268.24 38.8032 287.772 59.5558 301.326 84.3113C314.88 109.067 322 136.991 322 165.393V165.393Z" fill="#F2F2F2"/>
<path d="M108.234 554.133C76.873 511.151 58.7468 463.086 58.1529 408.289C57.1425 405.336 57.3102 402.09 58.6191 399.264C59.9281 396.439 62.2715 394.263 65.1351 393.215L172.03 354.243C174.896 353.202 178.046 353.375 180.788 354.724C183.531 356.072 185.642 358.487 186.659 361.438L236.74 507.282C237.75 510.235 237.583 513.48 236.274 516.306C234.965 519.132 232.621 521.307 229.758 522.355L122.863 561.327C119.997 562.368 116.847 562.196 114.105 560.847C111.362 559.498 109.251 557.083 108.234 554.133Z" fill="#E6E6E6"/>
<path d="M101.12 507.268C82.1815 487.634 74.0749 452.615 68.7925 413.584C67.8423 410.821 67.9999 407.784 69.2308 405.14C70.4616 402.496 72.6652 400.46 75.358 399.479L167.598 366.014C170.293 365.04 173.255 365.201 175.834 366.463C178.413 367.725 180.398 369.985 181.354 372.746L226.1 502.42C227.05 505.183 226.893 508.22 225.662 510.864C224.431 513.509 222.227 515.544 219.534 516.525L162.394 537.256C150.389 541.595 137.197 540.875 125.709 535.254C114.222 529.632 105.379 519.567 101.12 507.268Z" fill="white"/>
<path d="M182.592 442.788L110.462 468.906C109.893 469.112 109.291 469.202 108.688 469.171C108.085 469.141 107.494 468.99 106.949 468.728C106.404 468.466 105.914 468.097 105.51 467.643C105.105 467.19 104.792 466.659 104.589 466.083C104.386 465.506 104.297 464.895 104.327 464.283C104.357 463.672 104.506 463.073 104.764 462.519C105.023 461.966 105.386 461.47 105.833 461.059C106.281 460.648 106.804 460.331 107.372 460.125L179.503 434.007C180.651 433.591 181.914 433.655 183.016 434.185C184.117 434.714 184.966 435.666 185.376 436.83C185.785 437.995 185.722 439.276 185.2 440.394C184.678 441.511 183.74 442.372 182.592 442.788H182.592Z" fill="#015FC7"/>
<path d="M118.468 438.64L102.349 444.431C101.771 444.639 101.159 444.73 100.546 444.7C99.9334 444.67 99.3326 444.518 98.7782 444.254C98.2238 443.99 97.7265 443.619 97.3148 443.161C96.9031 442.703 96.585 442.169 96.3788 441.587C96.1726 441.006 96.0823 440.389 96.113 439.773C96.1438 439.156 96.2949 438.552 96.5579 437.994C96.8208 437.436 97.1904 436.936 97.6456 436.522C98.1007 436.109 98.6324 435.789 99.2103 435.582L115.33 429.792C115.907 429.583 116.52 429.492 117.133 429.522C117.745 429.552 118.346 429.704 118.9 429.968C119.455 430.232 119.952 430.603 120.364 431.061C120.776 431.519 121.094 432.054 121.3 432.635C121.506 433.216 121.596 433.833 121.566 434.45C121.535 435.066 121.384 435.67 121.121 436.228C120.858 436.786 120.488 437.286 120.033 437.7C119.578 438.114 119.046 438.433 118.468 438.64Z" fill="#015FC7"/>
<path d="M195.77 481.603L124.36 507.724C123.224 508.138 121.974 508.073 120.885 507.544C119.795 507.014 118.956 506.063 118.55 504.899C118.145 503.735 118.207 502.454 118.723 501.338C119.239 500.221 120.166 499.36 121.301 498.943L192.711 472.822C193.847 472.408 195.097 472.473 196.187 473.003C197.276 473.532 198.116 474.484 198.521 475.647C198.926 476.811 198.864 478.092 198.348 479.209C197.833 480.326 196.905 481.187 195.77 481.603Z" fill="#015FC7"/>
<path d="M189.19 462.197L117.792 488.314C116.656 488.73 115.405 488.666 114.315 488.137C113.225 487.607 112.385 486.656 111.979 485.491C111.574 484.327 111.636 483.045 112.153 481.928C112.669 480.811 113.598 479.95 114.734 479.534L186.132 453.417C186.695 453.211 187.292 453.12 187.889 453.15C188.486 453.18 189.071 453.33 189.612 453.592C190.152 453.854 190.636 454.223 191.038 454.677C191.439 455.131 191.749 455.662 191.95 456.239C192.151 456.815 192.239 457.427 192.209 458.039C192.179 458.651 192.031 459.25 191.775 459.804C191.519 460.357 191.159 460.853 190.715 461.264C190.272 461.675 189.754 461.992 189.19 462.197Z" fill="#015FC7"/>
<path d="M124.374 90.3877C126.707 109.76 139.745 125.733 158.705 125.733C167.81 125.733 176.542 122.009 182.98 115.38C189.419 108.752 193.036 99.7618 193.036 90.3877C193.036 70.8672 177.584 56.8474 158.705 55.0427C138.673 53.1277 121.38 65.5161 124.374 90.3877Z" fill="#2F2E41"/>
<path d="M188.107 328.492C167.119 332.033 145.624 331.472 124.857 326.84C134.714 321.498 164.612 324.78 188.107 328.492Z" fill="#2F2E41"/>
<path d="M55.0812 390.362L71.5958 349.351L84.6072 356.779L76.7494 398.498C77.5364 401.141 77.5903 403.957 76.9051 406.63C76.2199 409.303 74.8227 411.726 72.8707 413.628C70.9186 415.529 68.4891 416.834 65.8552 417.394C63.2213 417.954 60.4875 417.749 57.9611 416.8C55.4347 415.852 53.2158 414.198 51.554 412.025C49.8922 409.851 48.8533 407.244 48.5541 404.498C48.2549 401.751 48.7072 398.973 49.8603 396.476C51.0134 393.979 52.8214 391.861 55.0812 390.362Z" fill="#FFB6B6"/>
<path d="M225.858 279.901V279.923C225.266 294.193 224.454 307.764 223.773 318.207C203.99 326.733 182.744 331.117 161.285 331.103C149.165 331.117 137.082 329.728 125.266 326.962C119.802 325.688 114.409 324.11 109.112 322.236C109.849 321.748 110.646 321.362 111.482 321.088C119.384 318.342 111.57 315.844 111.636 313.233C111.877 303.69 114.445 292.235 117.76 281.251L103.01 319.963L95.3275 340.084C95.3275 340.084 95.5911 357.459 90.7183 352.147C85.8238 346.836 86.1749 364.031 86.1749 364.031C84.6537 365.142 83.3443 366.531 82.3118 368.127C81.8776 368.845 81.7138 369.702 81.851 370.535V370.558C82.0716 371.212 82.5057 371.769 83.0801 372.133C86.3944 374.429 81.6314 380.505 79.5244 382.914C78.9537 383.566 78.5806 383.949 78.5806 383.949L58.3215 382.463V382.058C58.4094 379.605 58.9581 366.686 62.0968 363.603C65.5428 360.205 63.8527 354.825 63.8527 354.825C63.8527 354.825 72.8518 346.656 66.8158 340.016C64.4015 337.338 65.477 321.471 68.44 300.945C74.915 255.661 90.433 187.691 97.1494 188.659C98.5333 181.765 101.748 175.397 106.438 170.258C111.129 165.119 117.113 161.408 123.73 159.536L145.613 153.369L149.52 137.547H180.336L185.692 147.945L208.146 158.343L208.431 158.478L209.133 158.793L209.397 159.648C209.397 159.648 209.375 159.671 209.397 159.671L221.886 199.89C227.505 206.507 227.285 245.173 225.858 279.901Z" fill="#015FC7"/>
<path d="M277.781 360.908L257.107 322.212L270.77 316.441L297.343 348.664C299.823 349.679 301.979 351.388 303.569 353.597C305.159 355.807 306.119 358.43 306.343 361.171C306.566 363.913 306.043 366.664 304.833 369.116C303.623 371.568 301.773 373.624 299.492 375.051C297.212 376.479 294.59 377.222 291.922 377.198C289.254 377.173 286.645 376.381 284.389 374.912C282.133 373.442 280.32 371.353 279.153 368.879C277.985 366.405 277.51 363.645 277.781 360.908Z" fill="#FFB6B6"/>
<path d="M207.822 157.799C211.534 164.63 245.482 182.198 239.598 199.836C239.598 199.836 271.491 302.026 275.639 301.359C279.786 300.692 283.834 311.248 283.834 311.248C283.834 311.248 282.954 318.137 285.541 315.274C288.127 312.411 287.509 319.916 287.509 319.916C287.509 319.916 286.269 326.539 289.553 324.739C292.838 322.938 288.519 335.614 288.519 335.614L268.781 345.132L265.03 339.415C265.03 339.415 257.015 337.851 260.787 336.613C264.558 335.375 257.24 331.207 257.24 331.207C257.24 331.207 249.585 325.878 250.652 317.053C251.719 308.228 230.785 290.88 230.785 290.88C216.395 261.781 208.522 231.905 208.55 201.088L207.822 157.799Z" fill="#015FC7"/>
<path d="M162.643 128.264C179.428 128.264 193.036 114.097 193.036 96.6202C193.036 79.1436 179.428 64.9761 162.643 64.9761C145.857 64.9761 132.25 79.1436 132.25 96.6202C132.25 114.097 145.857 128.264 162.643 128.264Z" fill="#FFB6B6"/>
<path d="M131.074 100.113C132.032 106.934 137.64 116.45 136.327 116.45C135.014 116.45 125.676 88.3325 135.014 86.4991C141.786 85.1692 143.3 86.3358 149.63 83.4903L148.737 84.3617C152.927 87.5202 158.758 85.5733 163.538 83.5175C168.332 81.4754 174.149 79.5286 178.352 82.6735C180.992 84.6476 182.108 88.0783 183.749 90.9917C185.391 93.9188 188.425 96.6825 191.55 95.784C192.768 95.2962 193.806 94.4206 194.514 93.2831C195.222 92.1457 195.563 90.8049 195.49 89.4534C195.477 86.7578 192.091 84.1934 193.231 81.7749C196.611 74.6077 193.572 69.7226 186.205 66.35C183.526 65.928 180.847 65.4969 178.168 65.0567C179.572 63.0409 181.274 61.2673 183.211 59.8016C182.393 57.6262 180.977 55.7471 179.14 54.3967C176.87 53.3028 174.34 52.9241 171.864 53.3076C166.322 53.607 160.785 53.9065 155.251 54.2061C151.13 54.1298 147.04 54.9556 143.248 56.6294C138.678 59.0664 135.683 63.8177 133.503 68.6508C128.618 79.5149 129.393 88.2554 131.074 100.113Z" fill="#2F2E41"/>
</svg>
