<svg width="17" height="21" viewBox="0 0 17 21" fill="none" xmlns="http://www.w3.org/2000/svg">
<g opacity="0.5" clip-path="url(#clip0_15_19)" filter="url(#filter0_d_15_19)">
<path d="M10.0117 3.5264C10.0117 3.03203 9.84504 2.55791 9.54835 2.20833C9.25166 1.85876 8.84927 1.66237 8.42969 1.66237C8.01011 1.66237 7.60771 1.85876 7.31102 2.20833C7.01433 2.55791 6.84766 3.03203 6.84766 3.5264C6.84766 4.02078 7.01433 4.4949 7.31102 4.84448C7.60771 5.19405 8.01011 5.39044 8.42969 5.39044C8.84927 5.39044 9.25166 5.19405 9.54835 4.84448C9.84504 4.4949 10.0117 4.02078 10.0117 3.5264ZM5.89844 3.5264C5.89844 2.73541 6.16512 1.97681 6.63982 1.41749C7.11452 0.858168 7.75836 0.543945 8.42969 0.543945C9.10102 0.543945 9.74485 0.858168 10.2196 1.41749C10.6943 1.97681 10.9609 2.73541 10.9609 3.5264C10.9609 4.3174 10.6943 5.076 10.2196 5.63532C9.74485 6.19464 9.10102 6.50886 8.42969 6.50886C7.75836 6.50886 7.11452 6.19464 6.63982 5.63532C6.16512 5.076 5.89844 4.3174 5.89844 3.5264ZM4.97493 11.3554H11.8844C11.7084 9.88044 10.6327 8.7457 9.33342 8.7457H7.52595C6.22671 8.7457 5.15093 9.88044 4.97493 11.3554ZM4 11.7818C4 9.48666 5.57808 7.62728 7.52595 7.62728H9.33342C11.2813 7.62728 12.8594 9.48666 12.8594 11.7818C12.8594 12.1639 12.5964 12.4738 12.272 12.4738H4.58733C4.26301 12.4738 4 12.1639 4 11.7818Z" fill="black"/>
</g>
<defs>
<filter id="filter0_d_15_19" x="0" y="0.543945" width="16.8594" height="19.9299" filterUnits="userSpaceOnUse" color-interpolation-filters="sRGB">
<feFlood flood-opacity="0" result="BackgroundImageFix"/>
<feColorMatrix in="SourceAlpha" type="matrix" values="0 0 0 0 0 0 0 0 0 0 0 0 0 0 0 0 0 0 127 0" result="hardAlpha"/>
<feOffset dy="4"/>
<feGaussianBlur stdDeviation="2"/>
<feComposite in2="hardAlpha" operator="out"/>
<feColorMatrix type="matrix" values="0 0 0 0 0 0 0 0 0 0 0 0 0 0 0 0 0 0 0.25 0"/>
<feBlend mode="normal" in2="BackgroundImageFix" result="effect1_dropShadow_15_19"/>
<feBlend mode="normal" in="SourceGraphic" in2="effect1_dropShadow_15_19" result="shape"/>
</filter>
<clipPath id="clip0_15_19">
<rect width="8.85938" height="11.9298" fill="white" transform="translate(4 0.543945)"/>
</clipPath>
</defs>
</svg>
